<svg width="40" height="40" viewBox="0 0 40 40" fill="none" xmlns="http://www.w3.org/2000/svg">
<rect width="40" height="40" rx="5" fill="#EA622F"/>
<path d="M29 28L27.3 26.3M20.075 27.15C21.1354 27.15 22.1855 26.9411 23.1652 26.5353C24.1449 26.1295 25.0351 25.5347 25.7849 24.7849C26.5347 24.0351 27.1295 23.1449 27.5353 22.1652C27.9411 21.1855 28.15 20.1354 28.15 19.075C28.15 18.0146 27.9411 16.9645 27.5353 15.9848C27.1295 15.0051 26.5347 14.1149 25.7849 13.3651C25.0351 12.6153 24.1449 12.0205 23.1652 11.6147C22.1855 11.2089 21.1354 11 20.075 11C17.9334 11 15.8795 11.8508 14.3651 13.3651C12.8508 14.8795 12 16.9334 12 19.075C12 21.2166 12.8508 23.2705 14.3651 24.7849C15.8795 26.2992 17.9334 27.15 20.075 27.15V27.15Z" stroke="white" stroke-width="1.5" stroke-linecap="round" stroke-linejoin="round"/>
</svg>
