<svg width="32" height="32" viewBox="0 0 32 32" fill="none" xmlns="http://www.w3.org/2000/svg">
<mask id="mask0_233_789" style="mask-type:alpha" maskUnits="userSpaceOnUse" x="0" y="0" width="32" height="32">
<circle cx="16" cy="16" r="16" fill="#D9D9D9"/>
</mask>
<g mask="url(#mask0_233_789)">
<mask id="mask1_233_789" style="mask-type:alpha" maskUnits="userSpaceOnUse" x="6" y="6" width="20" height="20">
<rect x="6" y="6" width="20" height="20" fill="#D9D9D9"/>
</mask>
<g mask="url(#mask1_233_789)">
<path d="M12.4596 8.08276C12.4596 7.73759 12.1798 7.45776 11.8346 7.45776C11.4895 7.45776 11.2096 7.73759 11.2096 8.08276V9.39881C10.0102 9.49486 9.22278 9.73058 8.64428 10.3091C8.06578 10.8876 7.83006 11.675 7.73402 12.8744H24.2686C24.1725 11.675 23.9368 10.8876 23.3583 10.3091C22.7798 9.73058 21.9924 9.49486 20.793 9.39881V8.08276C20.793 7.73759 20.5131 7.45776 20.168 7.45776C19.8228 7.45776 19.543 7.73759 19.543 8.08276V9.34352C18.9886 9.33276 18.3672 9.33276 17.668 9.33276H14.3346C13.6354 9.33276 13.014 9.33276 12.4596 9.34352V8.08276Z" fill="#EA622F"/>
<path fill-rule="evenodd" clip-rule="evenodd" d="M7.66797 15.9994C7.66797 15.3002 7.66797 14.6788 7.67872 14.1244H24.3239C24.3346 14.6788 24.3346 15.3002 24.3346 15.9994V17.6661C24.3346 20.8088 24.3346 22.3801 23.3583 23.3565C22.382 24.3328 20.8107 24.3328 17.668 24.3328H14.3346C11.1919 24.3328 9.62059 24.3328 8.64428 23.3565C7.66797 22.3801 7.66797 20.8088 7.66797 17.6661V15.9994ZM20.168 17.6661C20.6282 17.6661 21.0013 17.293 21.0013 16.8328C21.0013 16.3725 20.6282 15.9994 20.168 15.9994C19.7077 15.9994 19.3346 16.3725 19.3346 16.8328C19.3346 17.293 19.7077 17.6661 20.168 17.6661ZM20.168 20.9994C20.6282 20.9994 21.0013 20.6263 21.0013 20.1661C21.0013 19.7059 20.6282 19.3328 20.168 19.3328C19.7077 19.3328 19.3346 19.7059 19.3346 20.1661C19.3346 20.6263 19.7077 20.9994 20.168 20.9994ZM16.8346 16.8328C16.8346 17.293 16.4615 17.6661 16.0013 17.6661C15.5411 17.6661 15.168 17.293 15.168 16.8328C15.168 16.3725 15.5411 15.9994 16.0013 15.9994C16.4615 15.9994 16.8346 16.3725 16.8346 16.8328ZM16.8346 20.1661C16.8346 20.6263 16.4615 20.9994 16.0013 20.9994C15.5411 20.9994 15.168 20.6263 15.168 20.1661C15.168 19.7059 15.5411 19.3328 16.0013 19.3328C16.4615 19.3328 16.8346 19.7059 16.8346 20.1661ZM11.8346 17.6661C12.2949 17.6661 12.668 17.293 12.668 16.8328C12.668 16.3725 12.2949 15.9994 11.8346 15.9994C11.3744 15.9994 11.0013 16.3725 11.0013 16.8328C11.0013 17.293 11.3744 17.6661 11.8346 17.6661ZM11.8346 20.9994C12.2949 20.9994 12.668 20.6263 12.668 20.1661C12.668 19.7059 12.2949 19.3328 11.8346 19.3328C11.3744 19.3328 11.0013 19.7059 11.0013 20.1661C11.0013 20.6263 11.3744 20.9994 11.8346 20.9994Z" fill="#EA622F"/>
</g>
</g>
</svg>
