<svg width="15" height="16" viewBox="0 0 15 16" fill="none" xmlns="http://www.w3.org/2000/svg">
<path fill-rule="evenodd" clip-rule="evenodd" d="M2.95002 1.68131C3.00002 2.42949 3.12502 3.16086 3.32502 3.8586L2.32502 4.86738C1.98336 3.8586 1.76669 2.79097 1.69169 1.68131H2.95002ZM11.1666 11.7862C11.875 11.9879 12.6 12.114 13.3333 12.1644V13.4165C12.2333 13.3409 11.175 13.1224 10.1666 12.7863L11.1666 11.7862ZM3.75 0H0.833333C0.375 0 0 0.378294 0 0.840654C0 8.73439 6.34167 15.1318 14.1667 15.1318C14.625 15.1318 15 14.7535 15 14.2911V11.3572C15 10.8949 14.625 10.5166 14.1667 10.5166C13.1333 10.5166 12.125 10.3484 11.1917 10.0374C11.1083 10.0038 11.0167 9.99537 10.9333 9.99537C10.7167 9.99537 10.5083 10.0794 10.3417 10.2392L8.50833 12.0886C6.15 10.8696 4.21667 8.92774 3.01667 6.54869L4.85 4.69925C5.08333 4.46387 5.15 4.13602 5.05833 3.84179C4.75 2.90025 4.58333 1.89147 4.58333 0.840654C4.58333 0.378294 4.20833 0 3.75 0Z" fill="#EA622F"/>
</svg>
