<svg width="25" height="25" viewBox="0 0 25 25" fill="none" xmlns="http://www.w3.org/2000/svg">
<g clip-path="url(#clip0_1324_748)">
<path d="M25 12.5762C25 18.8147 20.4229 23.9866 14.4479 24.9251V16.2137H17.3531L17.9062 12.6095H14.4479V10.271C14.4479 9.28451 14.9312 8.32409 16.4792 8.32409H18.051V5.25534C18.051 5.25534 16.624 5.01159 15.2604 5.01159C12.4125 5.01159 10.5521 6.73763 10.5521 9.86159V12.6085H7.38646V16.2126H10.5521V24.9241C4.57812 23.9845 0 18.8137 0 12.5762C0 5.67305 5.59687 0.0761719 12.5 0.0761719C19.4031 0.0761719 25 5.67201 25 12.5762Z" fill="white"/>
</g>
<defs>
<clipPath id="clip0_1324_748">
<rect width="25" height="25" fill="white"/>
</clipPath>
</defs>
</svg>
