<svg width="40" height="40" viewBox="0 0 40 40" fill="none" xmlns="http://www.w3.org/2000/svg">
<path d="M20 0C8.95375 0 0 8.955 0 20C0 31.045 8.95375 40 20 40C31.045 40 40 31.045 40 20C40 8.955 31.0462 0 20 0ZM20.2163 30.745C14.28 30.745 9.47125 25.9363 9.47125 20C9.47125 14.0638 14.28 9.255 20.2163 9.255C23.1175 9.255 25.5425 10.3238 27.4012 12.055L24.3725 15.0838V15.0775C23.245 14.0025 21.8138 13.4525 20.2163 13.4525C16.6713 13.4525 13.79 16.4475 13.79 19.9925C13.79 23.5375 16.6713 26.54 20.2163 26.54C23.4325 26.54 25.6225 24.7 26.0725 22.175H20.2163V17.9837H30.3225C30.4562 18.7013 30.53 19.455 30.53 20.24C30.53 26.38 26.42 30.745 20.2163 30.745Z" fill="#EA622F"/>
</svg>
