<svg width="25" height="25" viewBox="0 0 25 25" fill="none" xmlns="http://www.w3.org/2000/svg">
<g clip-path="url(#clip0_1324_741)">
<path d="M14.8945 12.5C14.8945 13.8214 13.8234 14.8926 12.502 14.8926C11.1805 14.8926 10.1094 13.8214 10.1094 12.5C10.1094 11.1786 11.1805 10.1074 12.502 10.1074C13.8234 10.1074 14.8945 11.1786 14.8945 12.5Z" fill="white"/>
<path d="M18.0971 8.26691C17.9821 7.95525 17.7986 7.67316 17.5602 7.4416C17.3287 7.20319 17.0468 7.0197 16.7349 6.90469C16.482 6.80646 16.1021 6.68954 15.4022 6.65768C14.6452 6.62316 14.4182 6.61572 12.5017 6.61572C10.585 6.61572 10.3581 6.62297 9.60123 6.65749C8.90143 6.68954 8.52129 6.80646 8.26857 6.90469C7.95672 7.0197 7.67462 7.20319 7.44326 7.4416C7.20484 7.67316 7.02135 7.95506 6.90615 8.26691C6.80792 8.51983 6.691 8.89996 6.65915 9.59977C6.62463 10.3566 6.61719 10.5836 6.61719 12.5003C6.61719 14.4168 6.62463 14.6438 6.65915 15.4008C6.691 16.1006 6.80792 16.4805 6.90615 16.7334C7.02135 17.0453 7.20465 17.3272 7.44307 17.5588C7.67462 17.7972 7.95653 17.9807 8.26838 18.0957C8.52129 18.1941 8.90143 18.311 9.60123 18.3429C10.3581 18.3774 10.5849 18.3846 12.5015 18.3846C14.4184 18.3846 14.6454 18.3774 15.4021 18.3429C16.1019 18.311 16.482 18.1941 16.7349 18.0957C17.3609 17.8542 17.8557 17.3594 18.0971 16.7334C18.1954 16.4805 18.3123 16.1006 18.3443 15.4008C18.3789 14.6438 18.3861 14.4168 18.3861 12.5003C18.3861 10.5836 18.3789 10.3566 18.3443 9.59977C18.3125 8.89996 18.1956 8.51983 18.0971 8.26691ZM12.5017 16.1858C10.466 16.1858 8.81579 14.5358 8.81579 12.5001C8.81579 10.4644 10.466 8.81432 12.5017 8.81432C14.5373 8.81432 16.1875 10.4644 16.1875 12.5001C16.1875 14.5358 14.5373 16.1858 12.5017 16.1858ZM16.3332 9.52996C15.8575 9.52996 15.4719 9.14429 15.4719 8.6686C15.4719 8.19291 15.8575 7.80724 16.3332 7.80724C16.8089 7.80724 17.1946 8.19291 17.1946 8.6686C17.1944 9.14429 16.8089 9.52996 16.3332 9.52996Z" fill="white"/>
<path d="M12.5 0C5.5975 0 0 5.5975 0 12.5C0 19.4025 5.5975 25 12.5 25C19.4025 25 25 19.4025 25 12.5C25 5.5975 19.4025 0 12.5 0ZM19.6344 15.4593C19.5997 16.2233 19.4782 16.745 19.3008 17.2016C18.928 18.1658 18.1658 18.928 17.2016 19.3008C16.7452 19.4782 16.2233 19.5995 15.4594 19.6344C14.694 19.6693 14.4495 19.6777 12.5002 19.6777C10.5507 19.6777 10.3064 19.6693 9.54075 19.6344C8.77686 19.5995 8.255 19.4782 7.79858 19.3008C7.31945 19.1206 6.88572 18.8381 6.52714 18.4729C6.16207 18.1145 5.87959 17.6805 5.69935 17.2016C5.52197 16.7452 5.40047 16.2233 5.36575 15.4594C5.33047 14.6938 5.32227 14.4493 5.32227 12.5C5.32227 10.5507 5.33047 10.3062 5.36556 9.54075C5.40028 8.77666 5.52158 8.255 5.69897 7.79839C5.87921 7.31945 6.16188 6.88553 6.52714 6.52714C6.88553 6.16188 7.31945 5.8794 7.79839 5.69916C8.255 5.52177 8.77666 5.40047 9.54075 5.36556C10.3062 5.33066 10.5507 5.32227 12.5 5.32227C14.4493 5.32227 14.6938 5.33066 15.4593 5.36575C16.2233 5.40047 16.745 5.52177 17.2016 5.69897C17.6805 5.87921 18.1145 6.16188 18.4731 6.52714C18.8381 6.88572 19.1208 7.31945 19.3008 7.79839C19.4784 8.255 19.5997 8.77666 19.6346 9.54075C19.6695 10.3062 19.6777 10.5507 19.6777 12.5C19.6777 14.4493 19.6695 14.6938 19.6344 15.4593Z" fill="white"/>
</g>
<defs>
<clipPath id="clip0_1324_741">
<rect width="25" height="25" fill="white"/>
</clipPath>
</defs>
</svg>
