<svg width="43" height="25" viewBox="0 0 43 25" fill="none" xmlns="http://www.w3.org/2000/svg">
<g clip-path="url(#clip0_1324_1185)">
<path d="M23.146 9.9248C23.1498 4.44394 27.6284 0 33.1511 0C38.6738 0 43.1523 4.44774 43.1523 9.93619C43.1523 15.4246 38.7923 19.747 33.3729 19.8648C34.9104 23.4731 39.3737 24.1302 39.3737 24.1302V25C27.9611 25 23.146 18.9038 23.146 11.3833V9.9248Z" fill="#EA622F"/>
<path d="M0.431208 9.9248C0.435032 4.44394 4.91362 0 10.4363 0C15.959 0 20.4414 4.44774 20.4414 9.93619C20.4414 15.4246 16.0814 19.747 10.662 19.8648C12.1994 23.4731 16.6627 24.1302 16.6627 24.1302V25C5.25018 25 0.435032 18.9038 0.435032 11.3833V9.9248H0.431208Z" fill="#EA622F"/>
</g>
<defs>
<clipPath id="clip0_1324_1185">
<rect width="42.5676" height="25" fill="white" transform="matrix(-1 0 0 1 43 0)"/>
</clipPath>
</defs>
</svg>
