<svg width="100" height="100" viewBox="0 0 100 100" fill="none" xmlns="http://www.w3.org/2000/svg">
<rect y="0.00012207" width="100" height="100" rx="50" fill="#FFF5E6"/>
<path d="M51.7124 47.9249C51.7162 42.4441 56.1948 38.0001 61.7175 38.0001C67.2402 38.0001 71.7188 42.4479 71.7188 47.9363C71.7188 53.4248 67.3587 57.7472 61.9393 57.8649C63.4768 61.4732 67.9401 62.1303 67.9401 62.1303V63.0001C56.5275 63.0001 51.7124 56.904 51.7124 49.3834V47.9249Z" fill="#EA622F"/>
<path d="M28.9976 47.9249C29.0014 42.4441 33.48 38.0001 39.0027 38.0001C44.5254 38.0001 49.0078 42.4479 49.0078 47.9363C49.0078 53.4248 44.6478 57.7472 39.2284 57.8649C40.7658 61.4732 45.2291 62.1303 45.2291 62.1303V63.0001C33.8166 63.0001 29.0014 56.904 29.0014 49.3834V47.9249H28.9976Z" fill="#EA622F"/>
</svg>
