<svg width="24" height="24" viewBox="0 0 24 24" fill="none" xmlns="http://www.w3.org/2000/svg">
<path d="M9.80126 8.61729C9.47431 8.29034 8.94422 8.29034 8.61727 8.61729C8.29032 8.94424 8.29032 9.47433 8.61727 9.80128L10.816 12L8.6173 14.1987C8.29035 14.5256 8.29035 15.0557 8.6173 15.3827C8.94425 15.7096 9.47434 15.7096 9.80129 15.3827L12 13.184L14.1986 15.3827C14.5256 15.7096 15.0557 15.7096 15.3826 15.3827C15.7096 15.0557 15.7096 14.5256 15.3826 14.1987L13.184 12L15.3827 9.8013C15.7096 9.47435 15.7096 8.94426 15.3827 8.61731C15.0557 8.29036 14.5256 8.29036 14.1987 8.61731L12 10.816L9.80126 8.61729Z" fill="white"/>
<path fill-rule="evenodd" clip-rule="evenodd" d="M12 0C5.37258 0 0 5.37258 0 12C0 18.6274 5.37258 24 12 24C18.6274 24 24 18.6274 24 12C24 5.37258 18.6274 0 12 0ZM1.67442 12C1.67442 6.29734 6.29734 1.67442 12 1.67442C17.7027 1.67442 22.3256 6.29734 22.3256 12C22.3256 17.7027 17.7027 22.3256 12 22.3256C6.29734 22.3256 1.67442 17.7027 1.67442 12Z" fill="white"/>
</svg>
