<svg width="18" height="18" viewBox="0 0 18 18" fill="none" xmlns="http://www.w3.org/2000/svg">
<mask id="mask0_2628_63963" style="mask-type:alpha" maskUnits="userSpaceOnUse" x="0" y="0" width="18" height="18">
<rect x="0.919922" y="0.662109" width="16.6294" height="16.6294" fill="#D9D9D9"/>
</mask>
<g mask="url(#mask0_2628_63963)">
<path d="M2.99805 8.97626C2.99805 8.37353 3.48666 7.88491 4.08939 7.88491H8.14275V3.83159C8.14275 3.22885 8.63136 2.74023 9.23409 2.74023C9.83684 2.74023 10.3255 3.22885 10.3255 3.83159V7.88491H14.3787C14.9815 7.88491 15.4701 8.37353 15.4701 8.97626C15.4701 9.579 14.9815 10.0676 14.3787 10.0676H10.3255V14.1209C10.3255 14.7237 9.83684 15.2123 9.23411 15.2123C8.63136 15.2123 8.14275 14.7237 8.14275 14.1209V10.0676H4.0894C3.48666 10.0676 2.99805 9.579 2.99805 8.97626Z" fill="#1B3B6F"/>
</g>
</svg>
