<svg width="25" height="25" viewBox="0 0 25 25" fill="none" xmlns="http://www.w3.org/2000/svg">
<g clip-path="url(#clip0_1324_746)">
<circle cx="12.5" cy="12.5" r="12.5" fill="white"/>
<path d="M15.8594 8.51562C15.0859 8.07031 14.5312 7.3125 14.3906 6.4375H12.875V15.5469C12.875 16.1094 12.4062 16.5781 11.8438 16.5781C11.2812 16.5781 10.8125 16.1094 10.8125 15.5469C10.8125 14.9844 11.2812 14.5156 11.8438 14.5156C12.0391 14.5156 12.2188 14.5547 12.375 14.625V13.1094C12.1875 13.0703 11.9922 13.0469 11.7969 13.0469C10.3359 13.0469 9.14062 14.2422 9.14062 15.7031C9.14062 17.1641 10.3359 18.3594 11.7969 18.3594C13.2578 18.3594 14.4531 17.1641 14.4531 15.7031V10.75C15.0312 11.1875 15.7656 11.4688 16.5625 11.5V9.92188C16.3125 9.89062 16.0469 9.75 15.8594 9.54688V8.51562Z" fill="black"/>
</g>
<defs>
<clipPath id="clip0_1324_746">
<rect width="25" height="25" fill="white"/>
</clipPath>
</defs>
</svg>
