<svg xmlns="http://www.w3.org/2000/svg" width="20" height="20" viewBox="0 0 24 24" fill="none" stroke="#EA622F" stroke-width="2" stroke-linecap="round" stroke-linejoin="round">
  <path d="M21 12a9 9 0 1 0-16.14 5.43L3 21l3.64-1.2A9 9 0 0 0 21 12z"/>
  <path d="M16.5 13.5c-.5-.25-1.5-.75-1.75-.85s-.4-.1-.55.15-.6.75-.75.9c-.15.15-.3.2-.55.1s-1.1-.4-2-1.25c-.75-.7-1.3-1.6-1.45-1.85s-.05-.4.1-.55c.1-.1.25-.3.35-.4s.15-.25.2-.4c.05-.15.05-.3 0-.45s-.5-1.3-.7-1.8c-.2-.45-.4-.4-.55-.4H8c-.15 0-.5.05-.7.3-.25.25-.9.95-.9 2.35s.95 2.7 1.15 2.95c.2.25 2 3 5 4 3 .95 3 .6 3.55.6.55 0 1.8-.7 2-1.5.25-.75.25-1.45.2-1.55s-.15-.2-.45-.35z"/>
</svg>